<svg id="Layer_1" data-name="Layer 1" xmlns="http://www.w3.org/2000/svg" viewBox="0 0 150.06 30.47"><defs><style>.cls-1{isolation:isolate;}.cls-2{fill:#268635;}.cls-3{fill:#9ebe72;}.cls-4{fill:#8a8580;}.cls-5{fill:#72706b;}</style></defs><title>Asset 3</title><g id="Layer_2" data-name="Layer 2"><g id="Capa_1" data-name="Capa 1"><g class="cls-1"><path class="cls-2" d="M86.44,29.16V22.72h.43v6.44Z" transform="translate(-0.13 -0.2)"/><path class="cls-2" d="M87.92,29.16v-4.6h.42v.5a1.41,1.41,0,0,1,1.09-.57.65.65,0,0,1,.53.24,1.22,1.22,0,0,1,.2.77v3.66h-.43V25.54a1,1,0,0,0-.12-.56.41.41,0,0,0-.36-.16.94.94,0,0,0-.46.14,1.7,1.7,0,0,0-.45.37v3.83Z" transform="translate(-0.13 -0.2)"/><path class="cls-2" d="M91,29.16v-4.6h.42v.5a1.41,1.41,0,0,1,1.09-.57.65.65,0,0,1,.53.24,1.23,1.23,0,0,1,.19.77v3.66h-.42V25.54a1,1,0,0,0-.12-.56.41.41,0,0,0-.36-.16.94.94,0,0,0-.46.14,1.7,1.7,0,0,0-.45.37v3.83Z" transform="translate(-0.13 -0.2)"/><path class="cls-2" d="M96.12,28.81a1.2,1.2,0,0,1-1.82,0,2.74,2.74,0,0,1-.25-1.33V26.24a2.79,2.79,0,0,1,.25-1.33,1,1,0,0,1,.91-.42,1.3,1.3,0,0,1,.56.11.79.79,0,0,1,.36.34,1.43,1.43,0,0,1,.18.54,4.1,4.1,0,0,1,.06.76v1.24A2.74,2.74,0,0,1,96.12,28.81Zm-1.2.07a1.07,1.07,0,0,0,.58,0,.56.56,0,0,0,.2-.14,1,1,0,0,0,.13-.2.88.88,0,0,0,.07-.28c0-.12,0-.23,0-.35V26.23c0-.2,0-.37,0-.5a2.65,2.65,0,0,0-.05-.38.85.85,0,0,0-.12-.3.54.54,0,0,0-.22-.17.81.81,0,0,0-.66,0,.54.54,0,0,0-.22.17.85.85,0,0,0-.12.3,2.65,2.65,0,0,0-.05.38c0,.13,0,.3,0,.5v1.68c0,.12,0,.23,0,.35a.88.88,0,0,0,.07.28,1,1,0,0,0,.13.2A.56.56,0,0,0,94.92,28.88Z" transform="translate(-0.13 -0.2)"/><path class="cls-2" d="M97.94,29.16l-1.06-4.6h.43l.86,4.06L99,24.56h.41l-1,4.6Z" transform="translate(-0.13 -0.2)"/><path class="cls-2" d="M100.8,29.23a.85.85,0,0,1-.67-.28,1,1,0,0,1-.26-.72,1.46,1.46,0,0,1,.07-.51,1.06,1.06,0,0,1,.29-.42,3,3,0,0,1,.56-.4c.23-.13.54-.29,1-.48v-.33a3.13,3.13,0,0,0-.07-.78.72.72,0,0,0-.2-.39.56.56,0,0,0-.37-.11.77.77,0,0,0-.27,0,.57.57,0,0,0-.23.12.53.53,0,0,0-.17.27,1.37,1.37,0,0,0-.06.44v.13H100a1.09,1.09,0,0,1,0-.13,1.28,1.28,0,0,1,.3-.9,1.19,1.19,0,0,1,.86-.28.9.9,0,0,1,.81.36,2.37,2.37,0,0,1,.23,1.2v2.31c0,.44,0,.7,0,.8h-.36c0-.35-.06-.55-.07-.61a1.05,1.05,0,0,1-.37.49A1,1,0,0,1,100.8,29.23Zm.1-.35a.74.74,0,0,0,.49-.18,1.54,1.54,0,0,0,.36-.46V26.73q-.78.4-1,.54a1,1,0,0,0-.41.5,1.16,1.16,0,0,0-.06.4.74.74,0,0,0,.18.55A.6.6,0,0,0,100.9,28.88Z" transform="translate(-0.13 -0.2)"/><path class="cls-2" d="M104.11,29.23a1.38,1.38,0,0,1-.52-.09,1,1,0,0,1-.34-.25,1.15,1.15,0,0,1-.19-.4A4,4,0,0,1,103,28c0-.16,0-.35,0-.58V26.35a2.93,2.93,0,0,1,.25-1.44,1,1,0,0,1,.91-.42,1.34,1.34,0,0,1,.48.08.77.77,0,0,1,.33.2.91.91,0,0,1,.19.32,1.89,1.89,0,0,1,.1.41c0,.13,0,.29,0,.48v.18h-.39V26a1.76,1.76,0,0,0-.17-.92.61.61,0,0,0-.56-.25.59.59,0,0,0-.59.32,3.08,3.08,0,0,0-.15,1.17v1.2a2.64,2.64,0,0,0,.16,1.1.59.59,0,0,0,.59.32.58.58,0,0,0,.58-.29,2.57,2.57,0,0,0,.14-1v-.18h.39v.17c0,.15,0,.27,0,.38s0,.22,0,.34a2,2,0,0,1-.08.31,1,1,0,0,1-.14.24.64.64,0,0,1-.2.2,1.26,1.26,0,0,1-.28.11A1.48,1.48,0,0,1,104.11,29.23Z" transform="translate(-0.13 -0.2)"/><path class="cls-2" d="M106.09,24v-.73h.42V24Zm0,5.2v-4.6h.42v4.6Z" transform="translate(-0.13 -0.2)"/><path class="cls-2" d="M109.5,28.81a1,1,0,0,1-.91.42,1,1,0,0,1-.9-.42,2.63,2.63,0,0,1-.25-1.33V26.24a2.68,2.68,0,0,1,.25-1.33,1,1,0,0,1,.9-.42,1.35,1.35,0,0,1,.57.11.84.84,0,0,1,.36.34,1.9,1.9,0,0,1,.18.54,5.36,5.36,0,0,1,0,.76v1.24A2.63,2.63,0,0,1,109.5,28.81Zm-1.19.07a1.18,1.18,0,0,0,.28,0,1.19,1.19,0,0,0,.29,0,.48.48,0,0,0,.2-.14.69.69,0,0,0,.13-.2.85.85,0,0,0,.08-.28l0-.35c0-.11,0-.25,0-.41V26.23c0-.2,0-.37,0-.5a2.71,2.71,0,0,0-.06-.38.85.85,0,0,0-.12-.3.51.51,0,0,0-.21-.17.69.69,0,0,0-.34-.07.67.67,0,0,0-.33.07.51.51,0,0,0-.21.17.85.85,0,0,0-.12.3,2.71,2.71,0,0,0-.06.38c0,.13,0,.3,0,.5V27.5c0,.16,0,.3,0,.41a2.07,2.07,0,0,0,0,.35.85.85,0,0,0,.08.28.53.53,0,0,0,.13.2A.48.48,0,0,0,108.31,28.88Zm.17-4.86.51-1.54h.43L108.7,24Z" transform="translate(-0.13 -0.2)"/><path class="cls-2" d="M110.57,29.16v-4.6H111v.5a1.4,1.4,0,0,1,1.09-.57.65.65,0,0,1,.53.24,1.23,1.23,0,0,1,.19.77v3.66h-.42V25.54a1,1,0,0,0-.12-.56.42.42,0,0,0-.36-.16.91.91,0,0,0-.46.14,1.7,1.7,0,0,0-.45.37v3.83Z" transform="translate(-0.13 -0.2)"/><path class="cls-2" d="M115,30.31V30a2.48,2.48,0,0,0,.62-.06.53.53,0,0,0,.3-.18.5.5,0,0,0,.07-.29v-.1c0-.08-.06-.29-.14-.64-.15-.61-.47-2-1-4.13h.42l.91,4.2.87-4.2h.42l-1.12,5a1,1,0,0,1-.38.59,1.59,1.59,0,0,1-.84.18Z" transform="translate(-0.13 -0.2)"/><path class="cls-2" d="M120.75,29.23a1.59,1.59,0,0,1-.4,0A1,1,0,0,1,120,29a.87.87,0,0,1-.24-.32,2.24,2.24,0,0,1-.15-.51,5.12,5.12,0,0,1,0-.73V26.23a5.12,5.12,0,0,1,0-.73,2.14,2.14,0,0,1,.15-.5,1,1,0,0,1,.25-.31.84.84,0,0,1,.33-.16,1.54,1.54,0,0,1,.4,0,1,1,0,0,1,.88.41,2.9,2.9,0,0,1,.25,1.42v.44H120v.73a2.62,2.62,0,0,0,.17,1.12.62.62,0,0,0,.58.31l.2,0a.56.56,0,0,0,.19-.07.55.55,0,0,0,.18-.16,1,1,0,0,0,.11-.28,1.89,1.89,0,0,0,0-.44v-.34h.42v.3a1.61,1.61,0,0,1-.26,1A1,1,0,0,1,120.75,29.23ZM120,26.5h1.47v-.35c0-.19,0-.34,0-.46a2.25,2.25,0,0,0-.06-.36.65.65,0,0,0-.11-.29.6.6,0,0,0-.21-.17.79.79,0,0,0-.32-.06.69.69,0,0,0-.43.11.72.72,0,0,0-.24.4,3.06,3.06,0,0,0-.09.84Z" transform="translate(-0.13 -0.2)"/><path class="cls-2" d="M122.39,29.16l1.12-2.4-1.05-2.2h.43l.86,1.83.85-1.83H125L124,26.81l1.11,2.35h-.4l-.94-2-.91,2Z" transform="translate(-0.13 -0.2)"/><path class="cls-2" d="M125.66,30.67V24.56h.43V25a1.08,1.08,0,0,1,.88-.47,1,1,0,0,1,.52.13.87.87,0,0,1,.31.39,2.13,2.13,0,0,1,.16.59,6,6,0,0,1,0,.79v.88a3.51,3.51,0,0,1-.24,1.49.83.83,0,0,1-.83.47,1.06,1.06,0,0,1-.84-.45v1.89Zm1.22-1.77a.55.55,0,0,0,.56-.37,3.69,3.69,0,0,0,.14-1.25v-.9a3.75,3.75,0,0,0-.13-1.21.56.56,0,0,0-.57-.35,1.06,1.06,0,0,0-.79.43v3.24A1,1,0,0,0,126.88,28.9Z" transform="translate(-0.13 -0.2)"/><path class="cls-2" d="M129.92,29.23a1.64,1.64,0,0,1-.4,0,1.1,1.1,0,0,1-.32-.17,1,1,0,0,1-.25-.32,1.85,1.85,0,0,1-.14-.51,3.91,3.91,0,0,1-.06-.73V26.23a3.91,3.91,0,0,1,.06-.73A1.48,1.48,0,0,1,129,25a.76.76,0,0,1,.25-.31.88.88,0,0,1,.32-.16,1.59,1.59,0,0,1,.4,0,1,1,0,0,1,.88.41,2.9,2.9,0,0,1,.25,1.42v.44h-1.87v.73a2.66,2.66,0,0,0,.16,1.12.63.63,0,0,0,.58.31l.2,0a.6.6,0,0,0,.2-.07.52.52,0,0,0,.17-.16,1,1,0,0,0,.11-.28,1.89,1.89,0,0,0,0-.44v-.34h.42v.3a1.61,1.61,0,0,1-.26,1A1,1,0,0,1,129.92,29.23Zm-.74-2.73h1.46v-.35c0-.19,0-.34,0-.46a2.23,2.23,0,0,0,0-.36.79.79,0,0,0-.12-.29.6.6,0,0,0-.21-.17.76.76,0,0,0-.32-.06.71.71,0,0,0-.43.11.72.72,0,0,0-.24.4,3.12,3.12,0,0,0-.08.84Z" transform="translate(-0.13 -0.2)"/><path class="cls-2" d="M131.92,29.16v-4.6h.42v.63a1.31,1.31,0,0,1,.49-.5,1.24,1.24,0,0,1,.59-.17h.08V25a.44.44,0,0,0-.17,0,1.08,1.08,0,0,0-1,.59v3.63Z" transform="translate(-0.13 -0.2)"/><path class="cls-2" d="M134.18,24v-.73h.42V24Zm0,5.2v-4.6h.42v4.6Z" transform="translate(-0.13 -0.2)"/><path class="cls-2" d="M136.7,29.23a1.73,1.73,0,0,1-.41,0A1.1,1.1,0,0,1,136,29a.87.87,0,0,1-.24-.32,1.54,1.54,0,0,1-.15-.51,4,4,0,0,1-.05-.73V26.23a4,4,0,0,1,.05-.73,2.14,2.14,0,0,1,.15-.5.86.86,0,0,1,.25-.31.88.88,0,0,1,.32-.16,1.68,1.68,0,0,1,.41,0,1,1,0,0,1,.88.41,3,3,0,0,1,.25,1.42v.44H136v.73a2.62,2.62,0,0,0,.17,1.12.6.6,0,0,0,.57.31l.21,0a.56.56,0,0,0,.19-.07.44.44,0,0,0,.17-.16.74.74,0,0,0,.11-.28,1.84,1.84,0,0,0,0-.44v-.34h.41v.3a1.55,1.55,0,0,1-.26,1A1,1,0,0,1,136.7,29.23ZM136,26.5h1.47v-.35c0-.19,0-.34,0-.46a2.25,2.25,0,0,0-.06-.36.79.79,0,0,0-.12-.29.6.6,0,0,0-.21-.17.71.71,0,0,0-.31-.06.67.67,0,0,0-.43.11.63.63,0,0,0-.24.4,3.06,3.06,0,0,0-.09.84Z" transform="translate(-0.13 -0.2)"/><path class="cls-2" d="M138.63,29.16v-4.6h.42v.5a1.41,1.41,0,0,1,1.09-.57.65.65,0,0,1,.53.24,1.23,1.23,0,0,1,.19.77v3.66h-.42V25.54a1,1,0,0,0-.12-.56.41.41,0,0,0-.36-.16.94.94,0,0,0-.46.14,1.7,1.7,0,0,0-.45.37v3.83Z" transform="translate(-0.13 -0.2)"/><path class="cls-2" d="M142.81,29.23a1.38,1.38,0,0,1-.52-.09.85.85,0,0,1-.33-.25,1.15,1.15,0,0,1-.2-.4,4,4,0,0,1-.09-.48c0-.16,0-.35,0-.58V26.35a3.06,3.06,0,0,1,.25-1.44,1,1,0,0,1,.91-.42,1.44,1.44,0,0,1,.49.08.8.8,0,0,1,.32.2.91.91,0,0,1,.19.32,1.89,1.89,0,0,1,.1.41,3.4,3.4,0,0,1,0,.48v.18h-.39V26a1.76,1.76,0,0,0-.17-.92.73.73,0,0,0-1.15.07,3.13,3.13,0,0,0-.14,1.17v1.2a2.86,2.86,0,0,0,.15,1.1.59.59,0,0,0,.59.32.57.57,0,0,0,.58-.29,2.57,2.57,0,0,0,.14-1v-.18h.39v.17c0,.15,0,.27,0,.38a2,2,0,0,1,0,.34,2,2,0,0,1-.08.31,1.41,1.41,0,0,1-.13.24,1,1,0,0,1-.2.2,1.6,1.6,0,0,1-.29.11A1.48,1.48,0,0,1,142.81,29.23Z" transform="translate(-0.13 -0.2)"/><path class="cls-2" d="M144.79,24v-.73h.42V24Zm0,5.2v-4.6h.42v4.6Z" transform="translate(-0.13 -0.2)"/><path class="cls-2" d="M147,29.23a.85.85,0,0,1-.67-.28,1,1,0,0,1-.25-.72,1.46,1.46,0,0,1,.07-.51,1,1,0,0,1,.28-.42,3.87,3.87,0,0,1,.56-.4q.34-.2,1-.48v-.33a3.83,3.83,0,0,0-.06-.78.72.72,0,0,0-.2-.39.58.58,0,0,0-.37-.11.7.7,0,0,0-.27,0,.57.57,0,0,0-.23.12.54.54,0,0,0-.18.27,1.37,1.37,0,0,0-.06.44v.13h-.41v-.13a1.28,1.28,0,0,1,.31-.9,1.16,1.16,0,0,1,.85-.28.9.9,0,0,1,.81.36,2.25,2.25,0,0,1,.24,1.2v2.31c0,.44,0,.7,0,.8H148c0-.35-.06-.55-.07-.61a1,1,0,0,1-.36.49A1,1,0,0,1,147,29.23Zm.1-.35a.77.77,0,0,0,.5-.18,1.37,1.37,0,0,0,.35-.46V26.73c-.52.27-.85.45-1,.54a1,1,0,0,0-.42.5,1.18,1.18,0,0,0-.05.4.79.79,0,0,0,.17.55A.6.6,0,0,0,147.1,28.88Z" transform="translate(-0.13 -0.2)"/><path class="cls-2" d="M149.31,29.16v-.83h.48v.83Z" transform="translate(-0.13 -0.2)"/></g><path class="cls-3" d="M21.67,18c7.1,4.41,16,3.64,22.57-2.82h0l10.09-10h0a8,8,0,0,1,7.8-2.21C55.07-1.37,46.13-.6,39.6,5.87h0L29.51,15.81h0A8,8,0,0,1,21.67,18Z" transform="translate(-0.13 -0.2)"/><path class="cls-4" d="M43.13,18c7.09,4.41,16,3.64,22.56-2.82h0l10.12-10h0a8,8,0,0,1,7.83-2.2c-7.08-4.43-16-3.66-22.51,2.81h0L51,15.81h0A8,8,0,0,1,43.13,18Z" transform="translate(-0.13 -0.2)"/><path class="cls-5" d="M62.19,18c-7.06,4.53-16.06,3.65-22.62-2.81h0L31.13,6.89C27.23,3,24.27,2.32,21.61,3.05c7.31-4.55,16-3.65,22.6,2.82h0L54.3,15.81h0A8,8,0,0,0,62.19,18Z" transform="translate(-0.13 -0.2)"/><path class="cls-2" d="M83.67,18c-7.09,4.41-16,3.64-22.54-2.82h0L52.67,6.89C48.77,3,45.8,2.32,43.13,3.05c7.31-4.55,16-3.65,22.6,2.82h0l10.1,9.94h0A8,8,0,0,0,83.67,18Z" transform="translate(-0.13 -0.2)"/><path class="cls-2" d="M40.7,18c-7.06,4.53-16.05,3.65-22.57-2.81h0L9.65,6.89C5.75,3,2.78,2.32.13,3.05c7.31-4.55,16-3.65,22.6,2.82h0l10.08,9.94h0A8,8,0,0,0,40.7,18Z" transform="translate(-0.13 -0.2)"/><path class="cls-5" d="M83.19,16.21V3a17.41,17.41,0,0,0-19,0c2.66-.73,5.62,0,9.52,3.84l8.42,8.35h0C82.47,15.55,82.83,15.87,83.19,16.21Z" transform="translate(-0.13 -0.2)"/><path class="cls-5" d="M104.19,1V11.77c0,5.71-3.41,8.91-9,8.91s-9-3.06-9-9V1h6V11.71c0,3,1.39,4.31,3.5,4.31s3.5-1.33,3.5-4.25V1Z" transform="translate(-0.13 -0.2)"/><path class="cls-5" d="M119.3,17h-8.17l-1.2,3H104l8.52-19H118l8.5,19h-6ZM115.23,6.83,112.75,13h4.94Z" transform="translate(-0.13 -0.2)"/><path class="cls-5" d="M144.19,8.78,139.13,15h-1l-4.94-6.17V21h-5V1H134l5.18,6.78L144.39,1h5.8V21h-6Z" transform="translate(-0.13 -0.2)"/></g></g></svg>