<svg xmlns="http://www.w3.org/2000/svg" viewBox="0 0 64.46 28.14"><defs><style>.cls-1{fill:#268635;}</style></defs><title>estrellas2</title><g id="Layer_2" data-name="Layer 2"><g id="Capa_1" data-name="Capa 1"><path class="cls-1" d="M4.56,17.83V27A1.2,1.2,0,0,0,7,27V17.83a1.2,1.2,0,0,0-2.39,0"/><path class="cls-1" d="M10.32,21.2H1.19a1.19,1.19,0,1,0,0,2.38h9.13a1.19,1.19,0,0,0,0-2.38"/><path class="cls-1" d="M29.11,17.83V27a1.19,1.19,0,1,0,2.38,0V17.83a1.19,1.19,0,0,0-2.38,0"/><path class="cls-1" d="M34.86,21.2H25.74a1.19,1.19,0,1,0,0,2.38h9.12a1.19,1.19,0,0,0,0-2.38"/><path class="cls-1" d="M16.5,1.19v9.13a1.2,1.2,0,0,0,2.39,0V1.19a1.2,1.2,0,0,0-2.39,0"/><path class="cls-1" d="M22.26,4.56H13.13a1.2,1.2,0,0,0,0,2.39h9.13a1.2,1.2,0,0,0,0-2.39"/><path class="cls-1" d="M57.51,17.39v9.12a1.2,1.2,0,0,0,2.39,0V17.39a1.2,1.2,0,0,0-2.39,0"/><path class="cls-1" d="M63.27,20.76H54.14a1.19,1.19,0,1,0,0,2.38h9.13a1.19,1.19,0,0,0,0-2.38"/></g></g></svg>