<svg xmlns="http://www.w3.org/2000/svg" viewBox="0 0 64.46 28.14"><defs><style>.cls-1{fill:#268635;}</style></defs><title>estrellas</title><g id="Layer_2" data-name="Layer 2"><g id="Capa_1" data-name="Capa 1"><path class="cls-1" d="M59.33,10.12V1.19C59.9.53,59.36,0,58.71,0a1.51,1.51,0,0,0-1.38,1.19v9.13a1.52,1.52,0,0,0,1.38,1.19,1.2,1.2,0,0,0,1.19-1.19"/><path class="cls-1" d="M54.33,7.12h8.94a1.49,1.49,0,0,0,1.19-1.37c0-.65-.53-1.19-1.19-.63H54.14c-.65-.56-1.19,0-1.19.63A1.2,1.2,0,0,0,54.14,7"/><path class="cls-1" d="M35.33,10.12V1.19A1.16,1.16,0,0,0,34.16,0c-.66,0-1.19.53-.83,1.19v9.13c-.36.65.17,1.19.83,1.19a1.19,1.19,0,0,0,1.19-1.19"/><path class="cls-1" d="M29.33,7.12h9.39a1.5,1.5,0,0,0,1.2-1.37c0-.65-.54-1.19-1.2-.63H29.6c-.66-.56-1.19,0-1.19.63A1.19,1.19,0,0,0,29.6,7"/><path class="cls-1" d="M47.33,27.12V17.83c.63-.66.09-1.19-.56-1.19a1.64,1.64,0,0,0-1.44,1.19V27a1.64,1.64,0,0,0,1.44,1.19A1.19,1.19,0,0,0,48,27"/><path class="cls-1" d="M42.33,23.12h9c.66.46,1.19-.07,1.19-.73a1.31,1.31,0,0,0-1.19-1.27H42.2A1.31,1.31,0,0,0,41,22.39a1.19,1.19,0,0,0,1.19,1.19"/><path class="cls-1" d="M6.33,11.12V1.63C7,1,6.41.44,5.75.44A1.62,1.62,0,0,0,4.33,1.63v9.13A1.62,1.62,0,0,0,5.75,12,1.19,1.19,0,0,0,7,10.76"/><path class="cls-1" d="M1.33,7.12h9a.88.88,0,0,0,1.19-.93,1,1,0,0,0-1.19-1.07H1.19A1,1,0,0,0,0,6.19a1.19,1.19,0,0,0,1.19,1.2"/></g></g></svg>