<svg xmlns="http://www.w3.org/2000/svg" viewBox="0 0 32.35 44.54"><defs><style>.cls-1{fill:none;stroke:#268635;stroke-miterlimit:10;stroke-width:2px;}</style></defs><title>labo</title><g id="Layer_2" data-name="Layer 2"><g id="Capa_1" data-name="Capa 1"><line class="cls-1" y1="31.26" x2="16.15" y2="31.26"/><path class="cls-1" d="M27,13.48A13.4,13.4,0,0,1,7.7,31.7"/><rect class="cls-1" x="5.95" y="19.95" width="2.66" height="4.83" transform="translate(17.94 1.4) rotate(45)"/><rect class="cls-1" x="9.71" y="23.32" width="2.66" height="2.97" transform="translate(20.77 -0.54) rotate(45)"/><path class="cls-1" d="M30.58,5.26,27.1,1.77a2.63,2.63,0,0,0-3.72,0L13,12.17,8.73,16.42,6.87,18.28l1.86,1.86,3.49,3.48,1.86,1.86,1.86-1.86,4.25-4.24L30.58,9A2.63,2.63,0,0,0,30.58,5.26Z"/><polyline class="cls-1" points="11.69 35.01 8.07 43.54 18.13 43.54"/><polyline class="cls-1" points="24.64 37.16 27.34 43.54 18.13 43.54"/><line class="cls-1" x1="11.91" y1="13.24" x2="19.11" y2="20.45"/></g></g></svg>