<svg xmlns="http://www.w3.org/2000/svg" viewBox="0 0 223.53 686.32"><defs><style>.cls-1{font-size:56.27px;font-family:Oswald, Oswald;}.cls-1,.cls-3{fill:#268635;}.cls-2{letter-spacing:-0.02em;}</style></defs><title>noticialogo</title><g id="Layer_2" data-name="Layer 2"><g id="Capa_1" data-name="Capa 1"><text class="cls-1" transform="translate(7.12 353.37)">N<tspan class="cls-2" x="31.65" y="0">O</tspan><tspan x="62.79" y="0">TICIAS</tspan></text><path class="cls-3" d="M198.34,539.13v-1h-12V526.35a1.23,1.23,0,0,0-.34-.86,1.11,1.11,0,0,0-.81-.36H172.5a1.13,1.13,0,0,0-.82.36,1.27,1.27,0,0,0-.34.86v11.78H159.56a1.24,1.24,0,0,0-.86.34,1.13,1.13,0,0,0-.36.82V552a1.11,1.11,0,0,0,.36.82,1.24,1.24,0,0,0,.86.34h11.78v11.78a1.27,1.27,0,0,0,.34.86,1.13,1.13,0,0,0,.82.36h12.69a1.11,1.11,0,0,0,.81-.36,1.23,1.23,0,0,0,.34-.86V553.13h11.75s.63.11.85-.11a1.54,1.54,0,0,0,.4-.84V539.1a1.54,1.54,0,0,0-.4-.84,1.84,1.84,0,0,0-.6-.35v1.22h-1v12H185.57a1.24,1.24,0,0,0-.87.36,1.2,1.2,0,0,0-.36.86v11.78h-11V552.36a1.26,1.26,0,0,0-.35-.87,1.24,1.24,0,0,0-.87-.36H160.34v-11h11.78a1.22,1.22,0,0,0,.86-.36,1.2,1.2,0,0,0,.36-.86V527.13h11v12s0,.62.2.84a.69.69,0,0,0,.84.19h13v-1h0Z"/><path class="cls-3" d="M145.34,582.36v1.77h37.75a3,3,0,1,1-.09,6h-3.35a4.14,4.14,0,0,0-4.19,3.65,4,4,0,0,0,4,4.35h14.43a3,3,0,0,1,0,6H156.14a3,3,0,0,1,0-6h9.22a4.14,4.14,0,0,0,4.19-3.64,4,4,0,0,0-4-4.36H145.34a2.93,2.93,0,1,1,0-5.86V582.5a4.82,4.82,0,0,0,0,9.63h18.43a1.5,1.5,0,0,1,0,3h-7.88a5.5,5.5,0,1,0-.06,11H194.2a5.5,5.5,0,0,0,0-11H179.39a1.5,1.5,0,0,1,0-3h4.26a5.5,5.5,0,1,0,.06-11H145.34Z"/><path class="cls-3" d="M56.34,643.93v-.8H18a5.5,5.5,0,1,0,.06,11h3.44a1.5,1.5,0,1,1,0,3H6.67a5.5,5.5,0,1,0,0,11H45a5.5,5.5,0,1,0-.06-11H37.91a1.5,1.5,0,1,1,0-3H56.34a4.82,4.82,0,1,0,0-9.63v.77a2.93,2.93,0,0,1,0,5.86h-20a4.14,4.14,0,0,0-4.19,3.64,4,4,0,0,0,4,4.36h8.61a3,3,0,1,1,0,6H7a3,3,0,0,1,0-6H21.42a4,4,0,0,0,4-4.36,4.14,4.14,0,0,0-4.19-3.64H18.69a3,3,0,1,1-.08-6H56.34Z"/><path class="cls-3" d="M211.44,655.13h-4.51a7.7,7.7,0,0,1-2.49,5.63,8.85,8.85,0,0,1-6.09,2.37H145.93a8.86,8.86,0,0,1-6.1-2.37,7.7,7.7,0,0,1-2.49-5.63v-2.6a8.1,8.1,0,0,1,2.61-5.91,9.33,9.33,0,0,1,6.4-2.49h55a9.29,9.29,0,0,1,6.39,2.49,8.06,8.06,0,0,1,2.61,5.91v1.6h2v-1.55a10,10,0,0,0-3.33-7.41,11.7,11.7,0,0,0-8-3H146.63a11.72,11.72,0,0,0-8,3,10.08,10.08,0,0,0-3.33,7.41v2.55a9.43,9.43,0,0,0,3.35,7.1,12.09,12.09,0,0,0,8,2.9h54.64a12.09,12.09,0,0,0,8-2.9,9.43,9.43,0,0,0,3.35-7.1Z"/><path class="cls-3" d="M204.31,664.13h-1.2a5.68,5.68,0,1,1-1.66-4,5.64,5.64,0,0,1,1.66,4h2.39a8.08,8.08,0,1,0-8.08,8.07,8.09,8.09,0,0,0,8.08-8.07Z"/><path class="cls-3" d="M154.18,664.13H153a5.68,5.68,0,1,1-1.66-4,5.64,5.64,0,0,1,1.66,4h2.39a8.08,8.08,0,1,0-8.08,8.07,8.08,8.08,0,0,0,8.08-8.07Z"/><path class="cls-3" d="M172.34,627.36v-1.19c-7.88,0-14.5,1.83-19.38,4.87a19.45,19.45,0,0,0-5.86,5.43,12.25,12.25,0,0,0-2.22,6.9,1.19,1.19,0,0,0,.35.84c.22.23.53.35.84-.08h51.35c.32.43.62.31.85.08a1.19,1.19,0,0,0,.35-.84,12.27,12.27,0,0,0-2.23-6.9,22.08,22.08,0,0,0-9.82-7.48,37.73,37.73,0,0,0-14.23-2.82v2.38a33,33,0,0,1,16.93,4.51,17.11,17.11,0,0,1,5.15,4.75,17.44,17.44,0,0,1,1.81,5.32h1.11v-1h-51v1h.92a9.73,9.73,0,0,1,1.82-5.32,19.67,19.67,0,0,1,8.77-6.62,37.06,37.06,0,0,1,14.49-2.64Z"/><path class="cls-3" d="M170.34,627.13v16.24a1.59,1.59,0,0,0,1.41,1.19c.66,0,1.19-.53.59-1.19v-16c.6-.66.07-1.19-.59-1.19a1.19,1.19,0,0,0-1.19,1.19"/><path class="cls-3" d="M160.34,458.13h50.32c.66.58,1.2.05,1.2-.61a1.55,1.55,0,0,0-1.2-1.39H160.57a1.54,1.54,0,0,0-1.19,1.39,1.19,1.19,0,0,0,1.19,1.19"/><path class="cls-3" d="M162.34,454.13H208c.66.36,1.19-.17,1.19-.83a1.16,1.16,0,0,0-1.19-1.17h-45.5a1.16,1.16,0,0,0-1.19,1.17,1.19,1.19,0,0,0,1.19,1.19"/><path class="cls-3" d="M162.34,449.13H208c.66.56,1.19,0,1.19-.63a1.5,1.5,0,0,0-1.19-1.37h-45.5a1.5,1.5,0,0,0-1.19,1.37,1.19,1.19,0,0,0,1.19,1.19"/><path class="cls-3" d="M162.34,443.13H208c.66.3,1.19-.23,1.19-.89a1.08,1.08,0,0,0-1.19-1.11h-45.5a1.08,1.08,0,0,0-1.19,1.11,1.19,1.19,0,0,0,1.19,1.19"/><path class="cls-3" d="M172.34,464.13v-6.61c.28-.66-.26-1.19-.92-1.19a1,1,0,0,0-1.08,1.19V464a1,1,0,0,0,1.08,1.19,1.19,1.19,0,0,0,1.2-1.19"/><path class="cls-3" d="M155.34,464.13V415.72a1.45,1.45,0,0,0-1.34-1.19c-.66,0-1.2.53-.66,1.19v48.11c-.54.66,0,1.2.66,1.2a1.2,1.2,0,0,0,1.19-1.2"/><path class="cls-3" d="M200.34,464.13v-6.61a1.63,1.63,0,0,0-1.43-1.19c-.66,0-1.19.53-.57,1.19V464c-.62.66-.09,1.19.57,1.19A1.19,1.19,0,0,0,200.1,464"/><path class="cls-3" d="M204.34,453.13V442.24c.42-.66-.11-1.19-.77-1.19a1.25,1.25,0,0,0-1.23,1.19V453.3a1.25,1.25,0,0,0,1.23,1.19,1.19,1.19,0,0,0,1.19-1.19"/><path class="cls-3" d="M169.34,453.13V442.24a1.65,1.65,0,0,0-1.44-1.19c-.66,0-1.19.53-.56,1.19V453.3c-.63.66-.1,1.19.56,1.19a1.19,1.19,0,0,0,1.19-1.19"/><path class="cls-3" d="M149,401.82l-1.15.29,2.59,10.58c.13.54.6.91,1.16.44h5c.56.47,1.05.08,1.17-.47L160,402.07a1.2,1.2,0,0,0-.53-1.25l-4.91-3.13a1.19,1.19,0,0,0-1.28,0l-4.92,3.13a1.17,1.17,0,0,0-.51,1.29l1.15-.29.64,1,4.28-2.73,3.57,2.28-1.89,8.75H152.5l-2.37-9.59-1.16.28.64,1Z"/><path class="cls-3" d="M147.34,403.13H161a1.05,1.05,0,0,0,1.19-1.09c0-.66-.53-1.19-1.19-.91H147c-.66-.28-1.19.25-1.19.91a1.19,1.19,0,0,0,1.19,1.19"/><path class="cls-3" d="M165.34,504.13v8.76a1.12,1.12,0,0,0,1.14,1.19c.66,0,1.2-.53.86-1.19v-9.12c.34-.66-.2-1.2-.86-1.2a1.2,1.2,0,0,0-1.19,1.2"/><path class="cls-3" d="M171.34,507.13h-9.42a1.2,1.2,0,0,0-1.19,1.2c0,.66.53,1.19,1.19.8h9.13c.65.39,1.19-.14,1.19-.8a1.19,1.19,0,0,0-1.19-1.19"/><path class="cls-3" d="M190.34,504.13v8.76c-.5.66,0,1.19.69,1.19a1.39,1.39,0,0,0,1.31-1.19v-9.12a1.39,1.39,0,0,0-1.31-1.2,1.19,1.19,0,0,0-1.19,1.2"/><path class="cls-3" d="M195.34,507.13h-8.87a1.21,1.21,0,0,0-1.2,1.2c0,.66.54,1.19,1.2.8h9.12c.66.39,1.19-.14,1.19-.8a1.19,1.19,0,0,0-1.19-1.19"/><path class="cls-3" d="M177.34,487.13v9.13a1,1,0,0,0,1.08,1.19c.66,0,1.2-.54.92-1.19v-9.13c.28-.66-.26-1.19-.92-1.19a1.19,1.19,0,0,0-1.19,1.19"/><path class="cls-3" d="M183.34,491.13h-9.48c-.66-.63-1.19-.1-1.19.56a1.65,1.65,0,0,0,1.19,1.44H183a1.67,1.67,0,0,0,1.19-1.44A1.19,1.19,0,0,0,183,490.5"/><path class="cls-3" d="M20.34,610.13v9.33a1.2,1.2,0,0,0,1.19,1.2c.66,0,1.2-.54.81-1.2v-9.12c.39-.66-.15-1.19-.81-1.19a1.19,1.19,0,0,0-1.19,1.19"/><path class="cls-3" d="M26.34,614.13H17c-.66-.42-1.19.11-1.19.77A1.25,1.25,0,0,0,17,616.13H26.1a1.25,1.25,0,0,0,1.19-1.23,1.19,1.19,0,0,0-1.19-1.19"/><path class="cls-3" d="M45.34,610.13v9.33c-.45.66.08,1.2.74,1.2a1.31,1.31,0,0,0,1.26-1.2v-9.12a1.3,1.3,0,0,0-1.26-1.19,1.19,1.19,0,0,0-1.19,1.19"/><path class="cls-3" d="M50.34,614.13H41.52c-.66-.42-1.2.11-1.2.77a1.26,1.26,0,0,0,1.2,1.23h9.12a1.25,1.25,0,0,0,1.19-1.23,1.19,1.19,0,0,0-1.19-1.19"/><path class="cls-3" d="M32.34,594.13v8.7A1.11,1.11,0,0,0,33.48,604c.65,0,1.19-.53.86-1.19V593.7c.33-.66-.21-1.19-.86-1.19a1.19,1.19,0,0,0-1.2,1.19"/><path class="cls-3" d="M38.34,597.13H28.91a1.11,1.11,0,0,0-1.19,1.13c0,.66.53,1.2,1.19.87H38c.66.33,1.19-.21,1.19-.87A1.19,1.19,0,0,0,38,597.07"/><path class="cls-3" d="M85.34,685.13H118c.66.3,1.19-.23,1.19-.89a1.08,1.08,0,0,0-1.19-1.11H85.44a1.08,1.08,0,0,0-1.19,1.11,1.19,1.19,0,0,0,1.19,1.19"/><path class="cls-3" d="M90.34,663.13h22.78c.65.34,1.19-.19,1.19-.85a1.13,1.13,0,0,0-1.19-1.15H90.28a1.13,1.13,0,0,0-1.19,1.15,1.19,1.19,0,0,0,1.19,1.19"/><path class="cls-3" d="M90.34,663.13h22.78c.65.34,1.19-.19,1.19-.85a1.13,1.13,0,0,0-1.19-1.15H90.28a1.13,1.13,0,0,0-1.19,1.15,1.19,1.19,0,0,0,1.19,1.19"/><path class="cls-3" d="M90.34,607.13h22.78c.65.64,1.19.11,1.19-.55a1.7,1.7,0,0,0-1.19-1.45H90.28a1.69,1.69,0,0,0-1.19,1.45,1.19,1.19,0,0,0,1.19,1.19"/><path class="cls-3" d="M90.34,607.13h22.78c.65.64,1.19.11,1.19-.55a1.7,1.7,0,0,0-1.19-1.45H90.28a1.69,1.69,0,0,0-1.19,1.45,1.19,1.19,0,0,0,1.19,1.19"/><path class="cls-3" d="M90.34,563.13h22.78a1.48,1.48,0,0,0,1.19-1.35c0-.66-.54-1.2-1.19-.65H90.28c-.66-.55-1.19,0-1.19.65A1.19,1.19,0,0,0,90.28,563"/><path class="cls-3" d="M85.34,585.13H118c.66.69,1.19.15,1.19-.5a1.79,1.79,0,0,0-1.19-1.5H85.44a1.79,1.79,0,0,0-1.19,1.5,1.19,1.19,0,0,0,1.19,1.19"/><path class="cls-3" d="M90.34,563.13h22.78a1.48,1.48,0,0,0,1.19-1.35c0-.66-.54-1.2-1.19-.65H90.28c-.66-.55-1.19,0-1.19.65A1.19,1.19,0,0,0,90.28,563"/><path class="cls-3" d="M85.34,485.13H118a1,1,0,0,0,1.19-1,.94.94,0,0,0-1.19-1H85.44a.94.94,0,0,0-1.19,1,1.19,1.19,0,0,0,1.19,1.19"/><path class="cls-3" d="M90.34,507.13h22.78a1,1,0,0,0,1.19-1.05.9.9,0,0,0-1.19-.95H90.28a.9.9,0,0,0-1.19.95,1.19,1.19,0,0,0,1.19,1.19"/><path class="cls-3" d="M90.34,507.13h22.78a1,1,0,0,0,1.19-1.05.9.9,0,0,0-1.19-.95H90.28a.9.9,0,0,0-1.19.95,1.19,1.19,0,0,0,1.19,1.19"/><path class="cls-3" d="M106,631.15a68.36,68.36,0,0,0,15.91-28.47,75,75,0,0,0,2.46-17.43v-.67s-.4-1.15-1-1.45h0v1.5l1.12.07s0-.56,0-1.53a69.54,69.54,0,0,0-3.34-20.42,67.36,67.36,0,0,0-19.21-30,67.48,67.48,0,0,1-21.73-48c0-.2,0-.35,0-.45v-.13a1.19,1.19,0,1,0-2.38-.09s0,.24,0,.67a69.87,69.87,0,0,0,22.52,49.8,65.1,65.1,0,0,1,18.53,28.92,67.22,67.22,0,0,1,3.22,19.7c0,.45,0,.81,0,1s0,.21,0,.26v.08a1.18,1.18,0,0,0,.33.89c.22.24.86-.31.86-.31h.07v-.5l-1.23,0v.58A64.65,64.65,0,0,1,119.58,602a66,66,0,0,1-15.35,27.48,1.2,1.2,0,0,0,.06,1.69,1.19,1.19,0,0,0,1.68-.06Z"/><path class="cls-3" d="M80.25,685.06V685c0-.17,0-.62,0-1.31A66.68,66.68,0,0,1,82.83,666a65.61,65.61,0,0,1,14.78-26.66,1.19,1.19,0,1,0-1.75-1.62,68.07,68.07,0,0,0-15.32,27.63,68.84,68.84,0,0,0-2.7,18.28c0,1,0,1.51,0,1.54a1.2,1.2,0,0,0,1.27,1.11,1.19,1.19,0,0,0,1.11-1.26Z"/><path class="cls-3" d="M106,530.59C122.85,511,125.36,487.42,125.36,475a67.79,67.79,0,0,0-.48-8.79,1.2,1.2,0,0,0-.85-1l-5.57-1.62,23-5.54a1.2,1.2,0,0,0,.05-2.31l-16.21-4.62V375.55a1,1,0,0,0-1.08-1.19.88.88,0,0,0-.92,1.19V452a.8.8,0,0,0,.59,1.15l12.62,3.63-23,5.54a1.19,1.19,0,0,0-.05,2.3l9.88,2.87.33-1.15-1.18.17v0A69.26,69.26,0,0,1,123,475c0,12.16-2.49,35.12-18.76,54.07a1.19,1.19,0,0,0,1.81,1.55Z"/><path class="cls-3" d="M124.46,685.2s0-.56,0-1.53a69.58,69.58,0,0,0-3.34-20.42,67.38,67.38,0,0,0-19.21-30,67.48,67.48,0,0,1-21.73-48c0-.19,0-.34,0-.44v-.14l-1.89,0v.5h.72c.33.69.65.55.87.31a1.17,1.17,0,0,0,.32-.89v-.08c0-.17,0-.62,0-1.31a66.8,66.8,0,0,1,2.59-17.56A65.67,65.67,0,0,1,97.49,539a1.19,1.19,0,0,0-1.76-1.61A68,68,0,0,0,80.52,565a68.91,68.91,0,0,0-2.68,18.21c0,1,0,1.52,0,1.54l1.47-.07v-1.5H79a1.81,1.81,0,0,0-1.19,1.45s0,.25,0,.67a69.9,69.9,0,0,0,22.52,49.81A65,65,0,0,1,118.89,664a67.27,67.27,0,0,1,3.22,19.7c0,.46,0,.81,0,1.05s0,.2,0,.26v.08a1.19,1.19,0,0,0,2.38.15Z"/><path class="cls-3" d="M10.34,404.13V413a1.64,1.64,0,0,0,1.43,1.19c.66,0,1.19-.54.57-1.19v-9.13c.62-.66.09-1.19-.57-1.19a1.19,1.19,0,0,0-1.19,1.19"/><path class="cls-3" d="M16.34,407.13H7.21A1.31,1.31,0,0,0,6,408.4c0,.66.53,1.19,1.19.73h9.12c.66.46,1.2-.07,1.2-.73a1.19,1.19,0,0,0-1.2-1.19"/><path class="cls-3" d="M35.34,404.13V413a.93.93,0,0,0,1,1.19,1,1,0,0,0,1-1.19v-9.13a1,1,0,0,0-1-1.19,1.19,1.19,0,0,0-1.19,1.19"/><path class="cls-3" d="M41.34,407.13H31.75a1.31,1.31,0,0,0-1.19,1.27c0,.66.53,1.19,1.19.73h9.13c.66.46,1.19-.07,1.19-.73a1.19,1.19,0,0,0-1.19-1.19"/><path class="cls-3" d="M22.34,387.13v9.2a1.5,1.5,0,0,0,1.37,1.19c.66,0,1.19-.53.63-1.19V387.2c.56-.65,0-1.19-.63-1.19a1.19,1.19,0,0,0-1.19,1.19"/><path class="cls-3" d="M28.34,391.13H19.15c-.66-.55-1.19,0-1.19.64a1.49,1.49,0,0,0,1.19,1.36h9.12a1.5,1.5,0,0,0,1.2-1.36,1.19,1.19,0,0,0-1.2-1.19"/><path class="cls-3" d="M51.34,420.13v9a1.65,1.65,0,0,0,1.44,1.19c.66,0,1.19-.53.56-1.19V420c.63-.66.1-1.2-.56-1.2a1.19,1.19,0,0,0-1.19,1.2"/><path class="cls-3" d="M57.34,423.13H48.22A1.72,1.72,0,0,0,47,424.6c0,.66.53,1.19,1.19.53h9.13c.65.66,1.19.13,1.19-.53a1.19,1.19,0,0,0-1.19-1.19"/><path class="cls-3" d="M76.34,420.13v9a.94.94,0,0,0,1,1.19,1,1,0,0,0,1-1.19V420a1,1,0,0,0-1-1.2,1.2,1.2,0,0,0-1.2,1.2"/><path class="cls-3" d="M82.34,423.13H72.76a1.74,1.74,0,0,0-1.19,1.47c0,.66.54,1.19,1.19.53h9.13c.66.66,1.19.13,1.19-.53a1.19,1.19,0,0,0-1.19-1.19"/><path class="cls-3" d="M63.34,403.13v9.39a1.53,1.53,0,0,0,1.38,1.2c.66,0,1.19-.54.62-1.2V403.4c.57-.66,0-1.19-.62-1.19a1.19,1.19,0,0,0-1.19,1.19"/><path class="cls-3" d="M69.34,407.13H60.16c-.66-.36-1.19.17-1.19.83a1.16,1.16,0,0,0,1.19,1.17h9.13A1.16,1.16,0,0,0,70.48,408a1.19,1.19,0,0,0-1.19-1.19"/><path class="cls-3" d="M11.34,437.13v8.67A1.41,1.41,0,0,0,12.66,447c.66,0,1.19-.53.68-1.19v-9.13c.51-.66,0-1.19-.68-1.19a1.19,1.19,0,0,0-1.19,1.19"/><path class="cls-3" d="M17.34,440.13H8.1a1.07,1.07,0,0,0-1.19,1.1c0,.66.53,1.2,1.19.9h9.13c.65.3,1.19-.24,1.19-.9A1.2,1.2,0,0,0,17.23,440"/><path class="cls-3" d="M36.34,437.13v8.67c-.32.66.21,1.19.87,1.19a1.11,1.11,0,0,0,1.13-1.19v-9.13a1.11,1.11,0,0,0-1.13-1.19A1.19,1.19,0,0,0,36,436.67"/><path class="cls-3" d="M41.34,440.13h-8.7a1.07,1.07,0,0,0-1.19,1.1c0,.66.54,1.2,1.19.9h9.13c.66.3,1.19-.24,1.19-.9A1.19,1.19,0,0,0,41.77,440"/><path class="cls-3" d="M24.34,453.13v8.95c-.6.66-.06,1.19.59,1.19a1.58,1.58,0,0,0,1.41-1.19V453a1.58,1.58,0,0,0-1.41-1.19A1.19,1.19,0,0,0,23.74,453"/><path class="cls-3" d="M29.34,456.13h-9a1.54,1.54,0,0,0-1.19,1.39c0,.66.53,1.19,1.19.61H29.5c.66.58,1.19.05,1.19-.61a1.19,1.19,0,0,0-1.19-1.19"/><path class="cls-3" d="M10.34,469.13v9.15c-.44.66.09,1.19.75,1.19a1.28,1.28,0,0,0,1.25-1.19v-9.13A1.29,1.29,0,0,0,11.09,468a1.19,1.19,0,0,0-1.19,1.19"/><path class="cls-3" d="M15.34,473.13H6.53c-.66-.61-1.19-.07-1.19.59a1.6,1.6,0,0,0,1.19,1.41h9.12a1.6,1.6,0,0,0,1.19-1.41,1.19,1.19,0,0,0-1.19-1.2"/><path class="cls-3" d="M22.34,485.13v9.43a1,1,0,0,0,1,1.2.94.94,0,0,0,1-1.2v-9.12a.93.93,0,0,0-1-1.19,1.19,1.19,0,0,0-1.19,1.19"/><path class="cls-3" d="M28.34,489.13H18.8c-.66-.32-1.19.21-1.19.87a1.1,1.1,0,0,0,1.19,1.13h9.12a1.11,1.11,0,0,0,1.2-1.13,1.19,1.19,0,0,0-1.2-1.19"/><path class="cls-3" d="M48.34,453.13v8.95a1.12,1.12,0,0,0,1.14,1.19c.66,0,1.19-.53.86-1.19V453c.33-.66-.2-1.19-.86-1.19A1.19,1.19,0,0,0,48.29,453"/><path class="cls-3" d="M54.34,456.13H44.92a1.55,1.55,0,0,0-1.2,1.39c0,.66.54,1.19,1.2.61H54c.66.58,1.19.05,1.19-.61A1.19,1.19,0,0,0,54,456.33"/><path class="cls-3" d="M23.34,420.13v9a1.3,1.3,0,0,0,1.26,1.19c.66,0,1.19-.53.74-1.19V420c.45-.66-.08-1.2-.74-1.2a1.2,1.2,0,0,0-1.19,1.2"/><path class="cls-3" d="M29.34,423.13H20a1.72,1.72,0,0,0-1.19,1.47c0,.66.53,1.19,1.19.53h9.13c.65.66,1.19.13,1.19-.53a1.19,1.19,0,0,0-1.19-1.19"/><path class="cls-3" d="M1.34,543.13H30.93c.66.46,1.2-.07,1.2-.73a1.32,1.32,0,0,0-1.2-1.27H1.19A1.31,1.31,0,0,0,0,542.4a1.19,1.19,0,0,0,1.19,1.19"/><path class="cls-3" d="M50,510.35a23.48,23.48,0,0,1-33.87,31.93,1.18,1.18,0,0,0-1.67.17,1.19,1.19,0,0,0,.17,1.68A25.87,25.87,0,0,0,51.93,509a1.2,1.2,0,0,0-1.94,1.4Z"/><path class="cls-3" d="M57.52,494.51l.84-.85-5-5,4.61-4.6,4.19,4.19-5.45,5.45.85.85.84-.85-.84.85.84.84,6.29-6.29a1.23,1.23,0,0,0,.35-.85,1.21,1.21,0,0,0-.35-.84l-5.88-5.88a1.21,1.21,0,0,0-1.69,0l-6.29,6.29a1.2,1.2,0,0,0,0,1.69l5.88,5.88a1.23,1.23,0,0,0,.85.35,1.21,1.21,0,0,0,.84-.35Z"/><path class="cls-3" d="M13.18,530.89,14,530l-2.62-2.62,4.6-4.61,1.79,1.79L12.34,530l.84.85L14,530l-.84.85.84.84,6.29-6.29a1.2,1.2,0,0,0,0-1.69l-3.46-3.46a1.19,1.19,0,0,0-1.69,0l-6.29,6.29a1.18,1.18,0,0,0,0,1.68l3.47,3.47a1.18,1.18,0,0,0,1.68,0Z"/><path class="cls-3" d="M21.32,534.17l.84-.84-2.62-2.63,2.18-2.18,1.78,1.79-3,3,.84.84.84-.84-.84.84.84.84L26,531.15a1.22,1.22,0,0,0,0-1.69L22.56,526a1.19,1.19,0,0,0-1.69,0L17,529.86a1.21,1.21,0,0,0-.35.84,1.19,1.19,0,0,0,.35.84L20.48,535a1.18,1.18,0,0,0,1.68,0Z"/><path class="cls-3" d="M57.52,494.51l.84-.85-6.42-6.42a6,6,0,0,0-8.54,0L24.25,506.39l-7.82,7.82L13,517.64a1.18,1.18,0,0,0,0,1.68l3.43,3.43,6.42,6.42,3.42,3.43a1.22,1.22,0,0,0,.85.34,1.2,1.2,0,0,0,.84-.34l3.42-3.43,7.83-7.82L58.36,502.2a6,6,0,0,0,0-8.54l-.84.85-.85.84a3.65,3.65,0,0,1,0,5.16L37.52,519.66l-7.82,7.83-2.58,2.58-2.58-2.58-6.43-6.43-2.58-2.58,2.58-2.58,7.83-7.82,19.15-19.16a3.65,3.65,0,0,1,5.16,0l6.42,6.43Z"/><path class="cls-3" d="M21.63,548.7,15,564.41a1.17,1.17,0,0,0,.1,1.12,1.4,1.4,0,0,0,1,.6H33.81A1.3,1.3,0,0,0,35,564.88c0-.66-.54-1.2-1.19-.75h-16l6-14.5a1.19,1.19,0,1,0-2.19-.93Z"/><path class="cls-3" d="M45.47,553.59l4.28,10.54H33.81c-.66-.45-1.19.09-1.19.75a1.29,1.29,0,0,0,1.19,1.25H51.55a1.4,1.4,0,0,0,1-.6,1.2,1.2,0,0,0,.11-1.12l-5-11.75a1.19,1.19,0,0,0-2.2.93Z"/><path class="cls-3" d="M22.28,510.05l13.27,13.27a1.19,1.19,0,1,0,1.68-1.68L24,508.37a1.19,1.19,0,0,0-1.68,1.68"/><path class="cls-3" d="M113.66,20.13H112.6s-.78,3.09-2,4.36-4.91,1.64-4.91,1.64H69.32a7,7,0,0,1,0-14h36.3a7,7,0,0,1,7,7h2.19a9,9,0,0,0-9-9H69.38a9.5,9.5,0,1,0,0,19h36.43a9,9,0,0,0,9-9Z"/><path class="cls-3" d="M81.34,24.13V15a1.18,1.18,0,0,0-1.18-1.19c-.66,0-1.19.54-.82,1.19v9c-.37.66.16,1.19.82,1.19A1.19,1.19,0,0,0,81.35,24"/><path class="cls-3" d="M96.34,24.13V15c.33-.65-.2-1.19-.86-1.19A1.13,1.13,0,0,0,94.34,15v9a1.12,1.12,0,0,0,1.14,1.19A1.19,1.19,0,0,0,96.67,24"/><path class="cls-3" d="M70.34,21.31v.82H70a.37.37,0,0,0,.37.37v-.37h0v-.37a.38.38,0,0,0-.37.37h.37v0h.37a.37.37,0,0,0-.37-.37v.37h0v.37a.36.36,0,0,0,.37-.37h-.37v-2a2,2,0,1,0,2,2,2,2,0,0,0-2-2Z"/><path class="cls-3" d="M70.34,16.31v.82H70a.37.37,0,0,0,.37.37v-.37h0v-.37a.38.38,0,0,0-.37.37h.37v0h.37a.37.37,0,0,0-.37-.37v.37h0v.37a.36.36,0,0,0,.37-.37h-.37v-2a2,2,0,1,0,2,2,2,2,0,0,0-2-2Z"/><path class="cls-3" d="M75.34,21.31v.82H75a.37.37,0,0,0,.37.37v-.37h0v-.37a.38.38,0,0,0-.37.37h.37v0h.37a.37.37,0,0,0-.37-.37v.37h0v.37a.36.36,0,0,0,.37-.37h-.37v-2a2,2,0,1,0,2,2,2,2,0,0,0-2-2Z"/><path class="cls-3" d="M75.34,16.31v.82H75a.37.37,0,0,0,.37.37v-.37h0v-.37a.38.38,0,0,0-.37.37h.37v0h.37a.37.37,0,0,0-.37-.37v.37h0v.37a.36.36,0,0,0,.37-.37h-.37v-2a2,2,0,1,0,2,2,2,2,0,0,0-2-2Z"/><path class="cls-3" d="M66.34,18.31v.82H66a.37.37,0,0,0,.37.37v-.37h0v-.37a.38.38,0,0,0-.37.37h.37v0h.37a.37.37,0,0,0-.37-.37v.37h0v.37a.36.36,0,0,0,.37-.37h-.37v-2a2,2,0,0,0-2,2.41,2,2,0,0,0,1.56,1.57,2,2,0,1,0,.41-4Z"/><path class="cls-3" d="M105.34,18v-.82h.37a.37.37,0,0,0-.37-.37v.37h0v.37a.36.36,0,0,0,.37-.37h-.37v0H105a.37.37,0,0,0,.37.37v-.37h0v-.37a.38.38,0,0,0-.37.37h.37v2a2,2,0,1,0-2-2,2,2,0,0,0,2,2Z"/><path class="cls-3" d="M105.34,23v-.82h.37a.37.37,0,0,0-.37-.37v.37h0v.37a.36.36,0,0,0,.37-.37h-.37v0H105a.37.37,0,0,0,.37.37v-.37h0v-.37a.38.38,0,0,0-.37.37h.37v2a2,2,0,1,0-2-2,2,2,0,0,0,2,2Z"/><path class="cls-3" d="M100.34,18v-.82h.37a.37.37,0,0,0-.37-.37v.37h0v.37a.36.36,0,0,0,.37-.37h-.37v0H100a.37.37,0,0,0,.37.37v-.37h0v-.37a.38.38,0,0,0-.37.37h.37v2a2,2,0,1,0-2-2,2,2,0,0,0,2,2Z"/><path class="cls-3" d="M100.34,23v-.82h.37a.37.37,0,0,0-.37-.37v.37h0v.37a.36.36,0,0,0,.37-.37h-.37v0H100a.37.37,0,0,0,.37.37v-.37h0v-.37a.38.38,0,0,0-.37.37h.37v2a2,2,0,1,0-2-2,2,2,0,0,0,2,2Z"/><path class="cls-3" d="M109.34,20v-.82h.37a.37.37,0,0,0-.37-.37v.37h0v.37a.36.36,0,0,0,.37-.37h-.37v0H109a.37.37,0,0,0,.37.37v-.37h0v-.37a.38.38,0,0,0-.37.37h.37v2a2,2,0,1,0-2-2,2,2,0,0,0,2,2Z"/><path class="cls-3" d="M24.34,88.13h1V36a6.89,6.89,0,0,1,2.06-4.91,7,7,0,0,1,9.89,0A6.88,6.88,0,0,1,39.34,36V87.13h-15v1h0v1H41.13a1.25,1.25,0,0,0,.86-.35,1.21,1.21,0,0,0,.35-.84V35.79a9.5,9.5,0,0,0-19,0V88.53a3.33,3.33,0,0,0,.46.84,1.74,1.74,0,0,0,.54.35Z"/><path class="cls-3" d="M24.64,98.13H40.93c.66.56,1.19,0,1.19-.63a1.5,1.5,0,0,0-1.19-1.37H24.64a1.5,1.5,0,0,0-1.19,1.37,1.19,1.19,0,0,0,1.19,1.19Z"/><path class="cls-3" d="M28.34,88.13V97.5a1.48,1.48,0,0,0,1.36,1.19c.66,0,1.19-.53.64-1.19v-9c.55-.66,0-1.19-.64-1.19a1.19,1.19,0,0,0-1.19,1.19"/><path class="cls-3" d="M35.34,88.13V97.5c-.66.66-.13,1.19.53,1.19a1.72,1.72,0,0,0,1.47-1.19v-9a1.72,1.72,0,0,0-1.47-1.19,1.19,1.19,0,0,0-1.19,1.19"/><path class="cls-3" d="M31.34,1.13V28.24a1.66,1.66,0,0,0,1.45,1.19c.65,0,1.19-.53.55-1.19v-27C34,.53,33.44,0,32.79,0a1.19,1.19,0,0,0-1.2,1.19"/><path class="cls-3" d="M30.34,79.13H40.93a1.25,1.25,0,0,0,1.19-1.23c0-.66-.53-1.19-1.19-.77H30.6c-.66-.42-1.19.11-1.19.77a1.19,1.19,0,0,0,1.19,1.19"/><path class="cls-3" d="M34.34,74.13h6.59c.66.32,1.19-.21,1.19-.87a1.1,1.1,0,0,0-1.19-1.13H34.81a1.11,1.11,0,0,0-1.19,1.13,1.19,1.19,0,0,0,1.19,1.19"/><path class="cls-3" d="M34.34,69.13h6.59c.66.68,1.19.14,1.19-.51a1.76,1.76,0,0,0-1.19-1.49H34.81a1.78,1.78,0,0,0-1.19,1.49,1.2,1.2,0,0,0,1.19,1.19"/><path class="cls-3" d="M30.34,65.13H40.93A1.14,1.14,0,0,0,42.12,64c0-.65-.53-1.19-1.19-.84H30.6c-.66-.35-1.19.19-1.19.84a1.19,1.19,0,0,0,1.19,1.2"/><path class="cls-3" d="M34.34,60.13h6.59c.66.4,1.19-.14,1.19-.8a1.21,1.21,0,0,0-1.19-1.2H34.81a1.21,1.21,0,0,0-1.19,1.2,1.2,1.2,0,0,0,1.19,1.2"/><path class="cls-3" d="M34.34,56.13h6.59a1.65,1.65,0,0,0,1.19-1.44c0-.66-.53-1.19-1.19-.56H34.81c-.65-.63-1.19-.1-1.19.56a1.19,1.19,0,0,0,1.19,1.19"/><path class="cls-3" d="M30.34,51.13H40.93a1,1,0,0,0,1.19-1.08.88.88,0,0,0-1.19-.92H30.6a.88.88,0,0,0-1.19.92,1.19,1.19,0,0,0,1.19,1.19"/><path class="cls-3" d="M34.34,46.13h6.59c.66.47,1.19-.06,1.19-.72a1.33,1.33,0,0,0-1.19-1.28H34.81a1.34,1.34,0,0,0-1.19,1.28,1.19,1.19,0,0,0,1.19,1.19"/><path class="cls-3" d="M34.34,42.13h6.59a1.48,1.48,0,0,0,1.19-1.36c0-.66-.53-1.19-1.19-.64H34.81c-.65-.55-1.19,0-1.19.64A1.19,1.19,0,0,0,34.81,42"/><path class="cls-3" d="M20.34,89.13H45.11c.66.59,1.2.06,1.2-.6a1.57,1.57,0,0,0-1.2-1.4H20.4a1.57,1.57,0,0,0-1.2,1.4,1.19,1.19,0,0,0,1.2,1.19"/><path class="cls-3" d="M51.34,211.32v1.81H84a2.5,2.5,0,0,1,2.49,2.72,2.61,2.61,0,0,1-2.66,2.28h-1a4,4,0,0,0-3.8,2.67,4,4,0,0,0,3.78,5.33H95a2.5,2.5,0,1,1,0,5H62.33a2.5,2.5,0,1,1,0-5H71a4,4,0,1,0,0-8H51.34a2.75,2.75,0,0,1,0-5.5v-3a5.25,5.25,0,0,0,0,10.5H71a1.5,1.5,0,1,1,0,3h-9.3a5.12,5.12,0,0,0-5.08,4,5,5,0,0,0,4.89,6h34.2a5,5,0,0,0,0-10h-13a1.5,1.5,0,1,1,0-3h2.56a5.12,5.12,0,0,0,5.09-4,5,5,0,0,0-4.9-6H51.34Z"/><path class="cls-3" d="M74.34,61.13H90.13a1,1,0,0,0,1.2-1.07.89.89,0,0,0-1.2-.93H74.5a.89.89,0,0,0-1.19.93,1.19,1.19,0,0,0,1.19,1.19"/><path class="cls-3" d="M74.34,67.13h8c.66.37,1.19-.16,1.19-.82a1.17,1.17,0,0,0-1.19-1.18H74.5a1.18,1.18,0,0,0-1.19,1.18A1.19,1.19,0,0,0,74.5,67.5"/><path class="cls-3" d="M67.34,67.13h1.9c.66.37,1.19-.16,1.19-.82a1.17,1.17,0,0,0-1.19-1.18H67a1.17,1.17,0,0,0-1.19,1.18A1.19,1.19,0,0,0,67,67.5"/><path class="cls-3" d="M27.12,272.79l6.42-18.26c0-.13.06-.27-.2-.4v-3.35a.57.57,0,0,0-.09-.84c-.22-.23-.84.19-.84.19H25s-.35-.51-.52-.43a4.21,4.21,0,0,0-1.11.83,3.66,3.66,0,0,0-1.06,2.69v.08a3.28,3.28,0,0,0,.64,2.13,3,3,0,0,0,1.21.94,4.39,4.39,0,0,0,1.76.33l.56,0a1.19,1.19,0,0,0,1.1-1.28,1.2,1.2,0,0,0-1.29-1.09l-.37,0a2,2,0,0,1-.81-.14.57.57,0,0,1-.34-.32c-.07-.14.54-.61.54-.61v0s-.46-.78-.22-1a1.89,1.89,0,0,1,.33-.28l.09-.06h0l-.2-1.07v1.35h6v1.8L24.87,272a1.19,1.19,0,1,0,2.25.79Z"/><path class="cls-3" d="M32.41,255.13H51.7L46,269.65,32.21,256.22a1.19,1.19,0,1,0-1.66,1.7l15.08,14.69a1.22,1.22,0,0,0,1.08.31,1.2,1.2,0,0,0,.86-.73l7-17.62a1.19,1.19,0,0,0-.12-1.11.76.76,0,0,0-1-.33H32.41a1,1,0,0,0-1.19,1,1.19,1.19,0,0,0,1.19,1.19Z"/><path class="cls-3" d="M46.47,273.13h15.9a2.2,2.2,0,0,0,1-.75,1.22,1.22,0,0,0,0-1.17l-8.68-17.15,2-5.22a1.19,1.19,0,1,0-2.23-.83l-2.14,5.7a1.19,1.19,0,0,0,0,1l8,16.46h-14c-.66-.57-1.2,0-1.2.62a1.19,1.19,0,0,0,1.2,1.19Z"/><path class="cls-3" d="M37.3,272.13H36.11a9.88,9.88,0,1,1-2.9-7,9.86,9.86,0,0,1,2.9,7h2.38A12.27,12.27,0,1,0,26.22,284.4a12.27,12.27,0,0,0,12.27-12.27Z"/><path class="cls-3" d="M73.45,272.13H72.26a9.88,9.88,0,1,1-2.9-7,9.86,9.86,0,0,1,2.9,7h2.38A12.27,12.27,0,1,0,62.37,284.4a12.27,12.27,0,0,0,12.27-12.27Z"/><path class="cls-3" d="M51,249.13h7.63c.32.49.62.36.85.14l1.14-1.15a1.19,1.19,0,1,0-1.69-1.68l-.79.69H51a1.36,1.36,0,0,0-1.19,1.29,1.19,1.19,0,0,0,1.19,1.2Z"/><path class="cls-3" d="M102,113.51h0c0,.06,0,.41,0,.92a10.74,10.74,0,0,1-.43,3.28,3,3,0,0,1-.61,1.11,1,1,0,0,1-.76.3,1.15,1.15,0,0,1-.55-.13,2.1,2.1,0,0,1-.83-1,8.85,8.85,0,0,1-.75-2.77c-.12-.93-.13-1.68-.8-1.81h0c.68-.66.15-1.2-.51-1.21a1.76,1.76,0,0,0-1.49,1.18v0c.29.31.3,2.09.78,3.93a7.33,7.33,0,0,0,1.25,2.69,4,4,0,0,0,1.22,1,3.48,3.48,0,0,0,1.68.41,3.35,3.35,0,0,0,2.43-1,4.55,4.55,0,0,0,1-1.5,9.31,9.31,0,0,0,.64-2.46,17.43,17.43,0,0,0,.13-2.12c0-.66,0-1.1,0-1.12a1.18,1.18,0,0,0-1.28-1.09,1.2,1.2,0,0,0-1.1,1.28Z"/><path class="cls-3" d="M78.49,129.19a4.56,4.56,0,0,1-2-.52,8.75,8.75,0,0,1-3-2.57,11.21,11.21,0,0,1-2-4.06,9.11,9.11,0,0,1-.29-2.23,5.17,5.17,0,0,1,.95-3.23,2.66,2.66,0,0,1,1-.82,2.89,2.89,0,0,1,1.32-.29,5.08,5.08,0,0,1,2.57.8,9.29,9.29,0,0,1,2.49,2.28l.94-.72-1,.64,2.2,3.45a1.19,1.19,0,0,0,2.06-.09l5.88-11.14a1.2,1.2,0,0,0,.08-.91l-2.73-8.58-1.14.36.29,1.16h0a37.53,37.53,0,0,1,7.82-.73,50,50,0,0,1,12.83,1.7,1.2,1.2,0,0,0,.62-2.31A52.54,52.54,0,0,0,93.92,99.6a37.85,37.85,0,0,0-8.41.81,1.17,1.17,0,0,0-.85,1.51l2.58,8.1-4.69,8.89-1.1-1.73-.06-.08a11.68,11.68,0,0,0-3.15-2.87,7.47,7.47,0,0,0-3.8-1.15,5.39,5.39,0,0,0-2.37.54,5.45,5.45,0,0,0-2.45,2.48,8.16,8.16,0,0,0-.83,3.71,11.25,11.25,0,0,0,.37,2.81,13.48,13.48,0,0,0,3.55,6.25,10.47,10.47,0,0,0,2.7,1.95,7.13,7.13,0,0,0,3.08.75,1.19,1.19,0,1,0,0-2.38Z"/><path class="cls-3" d="M108.47,133.31l.08.28-.08-.28h0l.08.28-.08-.28a15.54,15.54,0,0,1-3.78.44,13.9,13.9,0,0,1-6.2-1.37,12.21,12.21,0,0,1-5.6-6,1.19,1.19,0,0,0-2.16,1,14.63,14.63,0,0,0,6.69,7.17,16.22,16.22,0,0,0,7.27,1.62,17.87,17.87,0,0,0,4.43-.52,1.2,1.2,0,0,0-.65-2.3Z"/><path class="cls-3" d="M148.22,74.43s.05-.71.05-1.74a20.58,20.58,0,0,0-.86-6.3,7.52,7.52,0,0,0-1.75-3,4.69,4.69,0,0,0-3.41-1.4,5,5,0,0,0-2.37.59,6.53,6.53,0,0,0-2.64,2.92A17.59,17.59,0,0,0,135.71,71c-.21,1.68-.23,3-.37,3.31v.06a1.44,1.44,0,0,0,1.35,1.18c.66,0,1.18-.55.65-1.21v0c.52-.34.56-3.05,1.22-5.55A9,9,0,0,1,140,65.55a3.24,3.24,0,0,1,1-.87,2.53,2.53,0,0,1,1.24-.3,2.31,2.31,0,0,1,1.74.7,4.53,4.53,0,0,1,.92,1.44,11.94,11.94,0,0,1,.79,3.14,23,23,0,0,1,.19,3c0,.47,0,.87,0,1.14s0,.24,0,.31v.1a1.19,1.19,0,0,0,2.38.19Z"/><path class="cls-3" d="M126,98.2A27.88,27.88,0,0,0,133,99a25.31,25.31,0,0,0,11.4-2.55,22.67,22.67,0,0,0,10.46-11.22,1.19,1.19,0,1,0-2.16-1,20.35,20.35,0,0,1-9.37,10.1A22.94,22.94,0,0,1,133,96.63a27.89,27.89,0,0,1-4.57-.37c-.56-.09-1-.18-1.3-.25l-.34-.08-.08,0h0a1.2,1.2,0,0,0-.65,2.3Z"/><path class="cls-3" d="M127.82,42.45l.11,0c.56-.17,3.2-.94,6.7-1.68a59.86,59.86,0,0,1,11.81-1.41,19,19,0,0,1,7.05,1.09,6.87,6.87,0,0,1,2.29,1.45A5,5,0,0,1,157.05,44a20.48,20.48,0,0,1,.9,5.79,24,24,0,0,1-.65,5.12,25.67,25.67,0,0,0-.69,5.29,18.84,18.84,0,0,0,1.54,7.17,7.5,7.5,0,0,0,2.74,3.42,15.26,15.26,0,0,0,7.34,2.09c2,.17,4.12.19,6.12.28,3,.13,5.8.44,7.71,1.44a5.6,5.6,0,0,1,2.27,2,7.67,7.67,0,0,1,1,3.69c0,.12,0,.26,0,.41a30.14,30.14,0,0,1-.36,3.86c-.81,5.9-2.88,16.21-4.74,28.92a303.68,303.68,0,0,0-3.52,43.55c0,17.59,2.08,35.86,8.34,52.17s16.73,30.66,33.43,40.2l.81-1v-1.27H126.8a2.86,2.86,0,0,0-.85.42c-.22.23-.35.53-.61.85v34.73a1.69,1.69,0,0,0,1.46,1.19c.65,0,.54-1.19.54-1.19v-34h91.79c.54.46,1,.09,1.15-.43a1.19,1.19,0,0,0-.56-1.34c-16.17-9.24-26.28-23.06-32.39-39s-8.19-33.92-8.18-51.32c0-17.74,2.14-34.84,4.29-48.47,1.08-6.82,2.15-12.77,3-17.51.41-2.37.74-4.43,1-6.16a34.86,34.86,0,0,0,.39-4.19c0-.19,0-.38,0-.55a10.07,10.07,0,0,0-1.44-4.88,8,8,0,0,0-2.8-2.61A16.35,16.35,0,0,0,176.94,71c-3.54-.32-7.33-.17-10.41-.65a11.12,11.12,0,0,1-3.9-1.22,5.1,5.1,0,0,1-2.27-2.6A16.32,16.32,0,0,1,159,60.22a23.17,23.17,0,0,1,.64-4.81,27.1,27.1,0,0,0,.69-5.6,22.73,22.73,0,0,0-1-6.45,7.33,7.33,0,0,0-1.88-3.18,10.53,10.53,0,0,0-4.88-2.56,24.7,24.7,0,0,0-6.14-.68,64.25,64.25,0,0,0-13,1.62c-3.7.81-6.29,1.61-6.31,1.62a1.19,1.19,0,1,0,.7,2.27Z"/><path class="cls-3" d="M22.34,143.13v8.42a1.23,1.23,0,0,0,1.22,1.19c.65,0,1.19-.53.78-1.19v-8.37c.41-.66-.13-1.19-.78-1.19a1.19,1.19,0,0,0-1.19,1.19"/><path class="cls-3" d="M27.34,146.13h-8a1.26,1.26,0,0,0-1.19,1.24c0,.65.53,1.19,1.19.76h8.37c.66.43,1.19-.11,1.19-.76a1.19,1.19,0,0,0-1.19-1.2"/><path class="cls-3" d="M45.34,143.13v8.42c-.46.66.07,1.19.73,1.19a1.31,1.31,0,0,0,1.27-1.19v-8.37A1.31,1.31,0,0,0,46.07,142a1.19,1.19,0,0,0-1.19,1.19"/><path class="cls-3" d="M50.34,146.13H41.89a1.27,1.27,0,0,0-1.2,1.24c0,.65.54,1.19,1.2.76h8.37c.66.43,1.19-.11,1.19-.76a1.19,1.19,0,0,0-1.19-1.2"/><path class="cls-3" d="M33.34,128.13v8.16a1.16,1.16,0,0,0,1.17,1.19c.66,0,1.19-.53.83-1.19v-8.37c.36-.66-.17-1.19-.83-1.19a1.19,1.19,0,0,0-1.19,1.19"/><path class="cls-3" d="M38.34,131.13h-8a.93.93,0,0,0-1.19,1,1,1,0,0,0,1.19,1H38.7a1,1,0,0,0,1.19-1,1.2,1.2,0,0,0-1.19-1.2"/><path class="cls-3" d="M139.87,222.8a116.77,116.77,0,0,0,14.81-11.55,67.27,67.27,0,0,0,10.25-11.63c2.82-4.24,4.77-8.77,4.77-13.35a18.29,18.29,0,0,0-32-12.06l.9.78.89-.78A18.25,18.25,0,0,0,125.69,168a18.88,18.88,0,0,0-12.81,5,16.85,16.85,0,0,0-5.51,12.36c0,.32,0,.64,0,1,.31,5.09,2.47,9.9,5.48,14.25,4.51,6.52,10.94,12,16.25,16a97,97,0,0,0,9.53,6.27,1.19,1.19,0,1,0,1.15-2.08l-.07,0a97.89,97.89,0,0,1-15.32-11,58.79,58.79,0,0,1-9.85-10.86,25.82,25.82,0,0,1-4.79-12.65c0-.28,0-.56,0-.83a14.44,14.44,0,0,1,4.76-10.61,16.45,16.45,0,0,1,11.18-4.41,15.85,15.85,0,0,1,12,5.43,1.18,1.18,0,0,0,.9.4,1.16,1.16,0,0,0,.89-.4,15.91,15.91,0,0,1,27.88,10.49c0,3.88-1.7,8-4.38,12-4,6-10.1,11.67-15.2,15.79-2.54,2.06-4.84,3.74-6.5,4.9-.82.58-1.49,1-2,1.34l-.53.35-.17.11a1.19,1.19,0,1,0,1.28,2Z"/><path class="cls-3" d="M140.34,248.13V191.2A1.26,1.26,0,0,0,139.1,190c-.66,0-1.19.53-.76,1.19v57c-.43.66.1,1.19.76,1.19a1.19,1.19,0,0,0,1.19-1.19"/><path class="cls-3" d="M148.7,180.09l-9.43,9.42-9.42-9.42a1.19,1.19,0,0,0-1.69,1.68L138.43,192a1.21,1.21,0,0,0,.84.35,1.23,1.23,0,0,0,.85-.35l10.26-10.27a1.19,1.19,0,0,0-1.68-1.68Z"/><path class="cls-3" d="M148.7,189.51l-9.43,9.42-9.42-9.42a1.19,1.19,0,0,0-1.69,1.68l10.27,10.27a1.2,1.2,0,0,0,.84.34,1.22,1.22,0,0,0,.85-.34l10.26-10.27a1.19,1.19,0,0,0-1.68-1.68Z"/><path class="cls-3" d="M148.7,199.77l-9.43,9.42-9.42-9.42a1.2,1.2,0,0,0-1.69,1.69l10.27,10.26a1.21,1.21,0,0,0,.84.35,1.23,1.23,0,0,0,.85-.35l10.26-10.26a1.19,1.19,0,0,0-1.68-1.69Z"/><path class="cls-3" d="M10.53,223.2c16.39-9.11,26.42-17.08,32.69-24.14A42.63,42.63,0,0,0,52,184.66,48.34,48.34,0,0,0,54,175.82c.31-2,.55-3.81.91-5.47a13.86,13.86,0,0,1,3-6.51c1.67-1.93,4.29-3.74,8.62-5.43,4-1.56,6.73-3,8.7-4.72a9.92,9.92,0,0,0,2.29-3,11,11,0,0,0,1.07-3.59,1.77,1.77,0,0,0,0-.32,3.65,3.65,0,0,0-.33-1.43,15.08,15.08,0,0,0-1.7-2.83c-1.32-1.84-3.18-4.1-5.23-6.69a97.11,97.11,0,0,1-9.3-13.6c-2.73-5-4.65-10.46-4.65-15.83a21.11,21.11,0,0,1,2.41-9.85,15.06,15.06,0,0,1,8.07-7.22,31,31,0,0,1,11.41-1.78c3.44,0,6.94.31,10.24.61.7.07,1.41.09,2.11.09,2.72,0,5.44-.36,7.78-.35a13.67,13.67,0,0,1,3,.28,5.93,5.93,0,0,1,1.7.68A4.39,4.39,0,0,1,105.91,91a11.59,11.59,0,0,1,.72,4.49,38.1,38.1,0,0,1-.74,6.79,9,9,0,0,0-.15,1.66,21.11,21.11,0,0,0,2,7.84,72.72,72.72,0,0,0,6.41,11.38c2.13,3.15,3.82,5.3,3.84,5.31l.39-.74v-.63l-10.53,0a1.24,1.24,0,0,0-.86.35,1.19,1.19,0,0,0-.35.86c0,3.55.44,6.73.44,9.27a11.53,11.53,0,0,1-.33,3.05,4.93,4.93,0,0,1-.77,1.67,5.47,5.47,0,0,1-2.51,1.84,17.43,17.43,0,0,1-5.25,1h0a13.2,13.2,0,0,0-3.79.89A6.67,6.67,0,0,0,91,148.92a7.62,7.62,0,0,0-.88,3.79A15.43,15.43,0,0,0,90.3,155a5.89,5.89,0,0,0,1.39,3A11.49,11.49,0,0,0,96.8,161a40.33,40.33,0,0,0,9.88,1.69c3.19.22,6,.19,7.27.21h1c8,0,14.32-1.34,19.35-3.57A29.49,29.49,0,0,0,149.12,145a52.37,52.37,0,0,0,4.43-15.75,23.4,23.4,0,0,0,.3-3.55,13.17,13.17,0,0,0-.54-3.9,9.19,9.19,0,0,0-3.7-5,17.23,17.23,0,0,0-8.07-2.55h0a30.57,30.57,0,0,1-8-1.46,11.93,11.93,0,0,1-3.59-1.91,8.11,8.11,0,0,1-2.7-4,18.44,18.44,0,0,1-.71-5.65c0-4.18.7-9.29.71-15a1.21,1.21,0,0,0-1.21-1.2h-9.68v1l1.16.81a60.34,60.34,0,0,0,7-9.7c3.49-5.93,7-14.07,7-23a31.19,31.19,0,0,0-3-13.47c-1.89-4-2.76-7.33-2.76-10a9.28,9.28,0,0,1,1.14-4.69,10.6,10.6,0,0,1,6-4.52A34.81,34.81,0,0,1,144.44,20l2.12,0c9.79.31,22.52-.27,34.17,2.27a45.51,45.51,0,0,1,16.17,6.59A33.45,33.45,0,0,1,208.62,43a42.22,42.22,0,0,1,4.11,17.59c0,.26,0,.51,0,.76l1.19,0-1.18-.06-.15,2.47,1.19.06-1.18-.16a43.46,43.46,0,0,0-.42,5.94,38.49,38.49,0,0,0,9.26,25.08,1.19,1.19,0,1,0,1.83-1.53,36.1,36.1,0,0,1-8.71-23.55A40.25,40.25,0,0,1,215,64v-.1l.14-2.47v-.85A44.57,44.57,0,0,0,210.79,42a35.92,35.92,0,0,0-12.55-15.09c-7.68-5.25-17-7.43-26.14-8.37s-18.23-.67-25.46-.9l-2.2,0c-6.53,0-11.68,1-15.34,3.13a11.52,11.52,0,0,0-4.24,4.19,11.69,11.69,0,0,0-1.45,5.87c0,3.21,1,6.87,3,11a28.72,28.72,0,0,1,2.78,12.45c0,8.28-3.33,16.08-6.7,21.79a64,64,0,0,1-4.63,6.8c-.64.81-1.16,1.43-1.52,1.85l-.42.48-.11.12,0,0a1.21,1.21,0,0,0-.23,1.29.8.8,0,0,0,1.1.49h9.71v-1h-1.19c0,5.49-.69,10.54-.7,15a22.14,22.14,0,0,0,.63,5.75,11.42,11.42,0,0,0,1.7,3.72,11.88,11.88,0,0,0,5.36,4.06,30.29,30.29,0,0,0,9.33,1.9l.09-1.2-.13,1.2a18,18,0,0,1,5.16,1.22,7.49,7.49,0,0,1,3.86,3.25,9.35,9.35,0,0,1,1,4.58,22.22,22.22,0,0,1-.26,3.19c-.85,5.75-2.33,13.68-7.26,20.1a26.67,26.67,0,0,1-10.4,8.15c-4.62,2.07-10.53,3.37-18.17,3.37h-.92c-1,0-2.8,0-5-.08A45.91,45.91,0,0,1,99,158.87,12.22,12.22,0,0,1,95,157a3.88,3.88,0,0,1-1.65-2.54,13,13,0,0,1-.16-1.91,6.51,6.51,0,0,1,.24-1.84A3.77,3.77,0,0,1,95,148.68,8.73,8.73,0,0,1,99,147.43l-.12-1.2.08,1.2a20.54,20.54,0,0,0,5.39-1,9.3,9.3,0,0,0,2.76-1.5,7.07,7.07,0,0,0,2.29-3.39,13.54,13.54,0,0,0,.53-4.12c0-2.79-.44-5.92-.44-9.28h-1.19v1h10.54a1.88,1.88,0,0,0,1.07-.85,1.2,1.2,0,0,0-.13-1.26,1.47,1.47,0,0,1-.13-.16,99,99,0,0,1-6.32-9.28,55.28,55.28,0,0,1-3.67-7.18,17.82,17.82,0,0,1-1.57-6.43,6.81,6.81,0,0,1,.1-1.23,40,40,0,0,0,.78-7.22,14.9,14.9,0,0,0-.71-4.93A7.58,7.58,0,0,0,106.82,88a7.12,7.12,0,0,0-3.37-2,14.79,14.79,0,0,0-4-.46c-2.56,0-5.27.36-7.78.36-.65,0-1.28,0-1.89-.08-3.31-.31-6.88-.63-10.46-.63a33.58,33.58,0,0,0-12.29,2,17.4,17.4,0,0,0-9.3,8.33,23.43,23.43,0,0,0-2.68,11,33.66,33.66,0,0,0,3.42,14C61.56,127,66.09,133,69.84,137.71c1.87,2.36,3.54,4.41,4.72,6a20,20,0,0,1,1.35,2.06,2.56,2.56,0,0,1,.38,1.32h0a10,10,0,0,1-.83,2.53A8.74,8.74,0,0,1,72.33,153a34.84,34.84,0,0,1-6.61,3.22,26.48,26.48,0,0,0-8.15,4.67,14.65,14.65,0,0,0-3.65,4.91c-1.38,3.07-1.71,6.35-2.27,9.91a37.82,37.82,0,0,1-7.78,18.85C38.19,202,28,210.76,9.37,221.12a1.19,1.19,0,0,0,1.16,2.08Z"/><path class="cls-3" d="M10.53,223.2c16.39-9.11,26.42-17.08,32.69-24.14A42.63,42.63,0,0,0,52,184.66,48.34,48.34,0,0,0,54,175.82c.31-2,.55-3.81.91-5.47a13.86,13.86,0,0,1,3-6.51c1.67-1.93,4.29-3.74,8.62-5.43,4-1.56,6.73-3,8.7-4.72a9.92,9.92,0,0,0,2.29-3,11,11,0,0,0,1.07-3.59,1.77,1.77,0,0,0,0-.32,3.65,3.65,0,0,0-.33-1.43,15.08,15.08,0,0,0-1.7-2.83c-1.32-1.84-3.18-4.1-5.23-6.69a97.11,97.11,0,0,1-9.3-13.6c-2.73-5-4.65-10.46-4.65-15.83a21.11,21.11,0,0,1,2.41-9.85,15.06,15.06,0,0,1,8.07-7.22,31,31,0,0,1,11.41-1.78c3.44,0,6.94.31,10.24.61.7.07,1.41.09,2.11.09,2.72,0,5.44-.36,7.78-.35a13.67,13.67,0,0,1,3,.28,5.93,5.93,0,0,1,1.7.68A4.39,4.39,0,0,1,105.91,91a11.59,11.59,0,0,1,.72,4.49,38.1,38.1,0,0,1-.74,6.79,9,9,0,0,0-.15,1.66,21.11,21.11,0,0,0,2,7.84,72.72,72.72,0,0,0,6.41,11.38c2.13,3.15,3.82,5.3,3.84,5.31l.39-.74v-.63l-10.53,0a1.24,1.24,0,0,0-.86.35,1.19,1.19,0,0,0-.35.86c0,3.55.44,6.73.44,9.27a11.53,11.53,0,0,1-.33,3.05,4.93,4.93,0,0,1-.77,1.67,5.47,5.47,0,0,1-2.51,1.84,17.43,17.43,0,0,1-5.25,1h0a13.2,13.2,0,0,0-3.79.89A6.67,6.67,0,0,0,91,148.92a7.62,7.62,0,0,0-.88,3.79A15.43,15.43,0,0,0,90.3,155a5.89,5.89,0,0,0,1.39,3A11.49,11.49,0,0,0,96.8,161a40.33,40.33,0,0,0,9.88,1.69c3.19.22,6,.19,7.27.21h1c8,0,14.32-1.34,19.35-3.57A29.49,29.49,0,0,0,149.12,145a52.37,52.37,0,0,0,4.43-15.75,23.4,23.4,0,0,0,.3-3.55,13.17,13.17,0,0,0-.54-3.9,9.19,9.19,0,0,0-3.7-5,17.23,17.23,0,0,0-8.07-2.55h0a30.57,30.57,0,0,1-8-1.46,11.93,11.93,0,0,1-3.59-1.91,8.11,8.11,0,0,1-2.7-4,18.44,18.44,0,0,1-.71-5.65c0-4.18.7-9.29.71-15a1.21,1.21,0,0,0-1.21-1.2h-9.68v1l1.16.81a60.34,60.34,0,0,0,7-9.7c3.49-5.93,7-14.07,7-23a31.19,31.19,0,0,0-3-13.47c-1.89-4-2.76-7.33-2.76-10a9.28,9.28,0,0,1,1.14-4.69,10.6,10.6,0,0,1,6-4.52A34.81,34.81,0,0,1,144.44,20l2.12,0c9.79.31,22.52-.27,34.17,2.27a45.51,45.51,0,0,1,16.17,6.59A33.45,33.45,0,0,1,208.62,43a42.22,42.22,0,0,1,4.11,17.59c0,.26,0,.51,0,.76l1.19,0-1.18-.06-.15,2.47,1.19.06-1.18-.16a43.46,43.46,0,0,0-.42,5.94,38.49,38.49,0,0,0,9.26,25.08,1.19,1.19,0,1,0,1.83-1.53,36.1,36.1,0,0,1-8.71-23.55A40.25,40.25,0,0,1,215,64v-.1l.14-2.47v-.85A44.57,44.57,0,0,0,210.79,42a35.92,35.92,0,0,0-12.55-15.09c-7.68-5.25-17-7.43-26.14-8.37s-18.23-.67-25.46-.9l-2.2,0c-6.53,0-11.68,1-15.34,3.13a11.52,11.52,0,0,0-4.24,4.19,11.69,11.69,0,0,0-1.45,5.87c0,3.21,1,6.87,3,11a28.72,28.72,0,0,1,2.78,12.45c0,8.28-3.33,16.08-6.7,21.79a64,64,0,0,1-4.63,6.8c-.64.81-1.16,1.43-1.52,1.85l-.42.48-.11.12,0,0a1.21,1.21,0,0,0-.23,1.29.8.8,0,0,0,1.1.49h9.71v-1h-1.19c0,5.49-.69,10.54-.7,15a22.14,22.14,0,0,0,.63,5.75,11.42,11.42,0,0,0,1.7,3.72,11.88,11.88,0,0,0,5.36,4.06,30.29,30.29,0,0,0,9.33,1.9l.09-1.2-.13,1.2a18,18,0,0,1,5.16,1.22,7.49,7.49,0,0,1,3.86,3.25,9.35,9.35,0,0,1,1,4.58,22.22,22.22,0,0,1-.26,3.19c-.85,5.75-2.33,13.68-7.26,20.1a26.67,26.67,0,0,1-10.4,8.15c-4.62,2.07-10.53,3.37-18.17,3.37h-.92c-1,0-2.8,0-5-.08A45.91,45.91,0,0,1,99,158.87,12.22,12.22,0,0,1,95,157a3.88,3.88,0,0,1-1.65-2.54,13,13,0,0,1-.16-1.91,6.51,6.51,0,0,1,.24-1.84A3.77,3.77,0,0,1,95,148.68,8.73,8.73,0,0,1,99,147.43l-.12-1.2.08,1.2a20.54,20.54,0,0,0,5.39-1,9.3,9.3,0,0,0,2.76-1.5,7.07,7.07,0,0,0,2.29-3.39,13.54,13.54,0,0,0,.53-4.12c0-2.79-.44-5.92-.44-9.28h-1.19v1h10.54a1.88,1.88,0,0,0,1.07-.85,1.2,1.2,0,0,0-.13-1.26,1.47,1.47,0,0,1-.13-.16,99,99,0,0,1-6.32-9.28,55.28,55.28,0,0,1-3.67-7.18,17.82,17.82,0,0,1-1.57-6.43,6.81,6.81,0,0,1,.1-1.23,40,40,0,0,0,.78-7.22,14.9,14.9,0,0,0-.71-4.93A7.58,7.58,0,0,0,106.82,88a7.12,7.12,0,0,0-3.37-2,14.79,14.79,0,0,0-4-.46c-2.56,0-5.27.36-7.78.36-.65,0-1.28,0-1.89-.08-3.31-.31-6.88-.63-10.46-.63a33.58,33.58,0,0,0-12.29,2,17.4,17.4,0,0,0-9.3,8.33,23.43,23.43,0,0,0-2.68,11,33.66,33.66,0,0,0,3.42,14C61.56,127,66.09,133,69.84,137.71c1.87,2.36,3.54,4.41,4.72,6a20,20,0,0,1,1.35,2.06,2.56,2.56,0,0,1,.38,1.32h0a10,10,0,0,1-.83,2.53A8.74,8.74,0,0,1,72.33,153a34.84,34.84,0,0,1-6.61,3.22,26.48,26.48,0,0,0-8.15,4.67,14.65,14.65,0,0,0-3.65,4.91c-1.38,3.07-1.71,6.35-2.27,9.91a37.82,37.82,0,0,1-7.78,18.85C38.19,202,28,210.76,9.37,221.12a1.19,1.19,0,0,0,1.16,2.08Z"/></g></g></svg>