<svg xmlns="http://www.w3.org/2000/svg" viewBox="0 0 168 35.14"><defs><style>.cls-1{font-size:8.9px;font-family:Oswald-ExtraLight, Oswald;}.cls-1,.cls-2,.cls-3{fill:#fff;}.cls-3{stroke:#268635;stroke-miterlimit:10;}</style></defs><title>uamfooter</title><g id="Layer_2" data-name="Layer 2"><g id="Capa_1" data-name="Capa 1"><text class="cls-1" transform="translate(95.95 32.91)">Innovación y experiencia.</text><path class="cls-2" d="M24.12,20.45c7.94,4.94,17.91,4.08,25.27-3.16h0L60.68,6.16h0v0a9,9,0,0,1,8.76-2.46C61.51-1.26,51.54-.4,44.19,6.84h0L32.9,18h0A8.92,8.92,0,0,1,24.12,20.45Z"/><path class="cls-2" d="M48.17,20.45c7.94,4.94,17.92,4.08,25.27-3.16h0L84.73,6.16h0v0a9,9,0,0,1,8.77-2.46c-8-4.94-17.92-4.08-25.27,3.16h0L57,18h0A8.92,8.92,0,0,1,48.17,20.45Z"/><path class="cls-3" d="M69.48,20.44c-7.92,5.07-18,4.09-25.32-3.15h0L34.72,8C30.34,3.63,27,2.86,24.05,3.68c8.19-5.1,18-4.08,25.3,3.16h0L60.64,18h0A9,9,0,0,0,69.48,20.44Z"/><path class="cls-3" d="M93.53,20.45c-7.94,4.94-17.91,4.08-25.26-3.16h0L58.83,8c-4.38-4.35-7.7-5.12-10.67-4.3,8.19-5.1,18-4.08,25.3,3.16h0L84.75,18h0A8.92,8.92,0,0,0,93.53,20.45Z"/><path class="cls-2" d="M45.43,20.44c-7.92,5.07-18,4.09-25.33-3.15h0L10.66,8C6.29,3.63,3,2.86,0,3.68,8.18-1.42,18-.4,25.3,6.84h0L36.59,18h0A9,9,0,0,0,45.43,20.44Z"/><path class="cls-2" d="M94,18.38V3.64a19.5,19.5,0,0,0-21.29,0c3-.82,6.29-.05,10.66,4.3l9.45,9.3h0C93.2,17.67,93.6,18,94,18.38Z"/><path class="cls-2" d="M117,1.27V13.35c0,6.39-3.79,10-10,10s-10-3.42-10-10v-12h6v12c0,3.39,1.59,4.82,4,4.82s4-1.49,4-4.76V1.27Z"/><path class="cls-2" d="M133.68,19.27H124l-1.43,4h-6.71l9.87-22H132l9.84,22H135.1ZM128.86,7.39l-2.78,6.88h5.53Z"/><path class="cls-2" d="M161,11.07l-5.52,6.2H154.4L149,11.1V23.27h-6v-22h6.36L155,8.72l5.65-7.45H167v22h-6Z"/></g></g></svg>